<svg width="1440" height="600" viewBox="0 0 1440 600" xmlns="http://www.w3.org/2000/svg">
  <!-- Wave 1 - slowest and most subtle -->
  <path 
    d="M0,200 C150,150 300,100 450,100 C600,100 750,150 900,200 C1050,250 1200,300 1350,300 C1500,300 1650,250 1800,200 L1800,600 L0,600 Z" 
    fill="#4FD1C5" 
    fill-opacity="0.02"
  />
  
  <!-- Wave 2 - medium wave -->
  <path 
    d="M0,250 C100,225 200,200 300,200 C400,200 500,225 600,250 C700,275 800,300 900,300 C1000,300 1100,275 1200,250 C1300,225 1400,200 1500,200 L1500,600 L0,600 Z" 
    fill="#4FD1C5" 
    fill-opacity="0.01"
  />
  
  <!-- Wave 3 - fastest and sharpest -->
  <path 
    d="M0,300 C50,290 100,280 150,280 C200,280 250,290 300,300 C350,310 400,320 450,320 C500,320 550,310 600,300 C650,290 700,280 750,280 C800,280 850,290 900,300 C950,310 1000,320 1050,320 C1100,320 1150,310 1200,300 C1250,290 1300,280 1350,280 C1400,280 1450,290 1500,300 L1500,600 L0,600 Z" 
    fill="#4FD1C5" 
    fill-opacity="0.02"
  />
</svg>